# xmcd
#
# Track frame offsets: 
#        150
#        14505
#        30750
#        43601
#        59211
#        72623
#        91955
#        108400
#        122636
#        133474
#        141709
#        155510
#
# Disc length: 2212 seconds
#
# Revision: 0
# Processed by: cddbd v1.5.2PL0 Copyright (c) Steve Scherf et al.
# Submitted via: ExactAudioCopyFreeDBPlugin 1.0
#
DISCID=b708a20c
DTITLE=Robert Kartes - Bob's Country Classics
DYEAR=1900
DGENRE=Country
TTITLE0=I Can't Help It If I'm Still In Love With You
TTITLE1=Overlooked An Orchid
TTITLE2=Chattanoogie Shoe Shine Boy
TTITLE3=One More Time
TTITLE4=Heartache By The Number
TTITLE5=I Can't Stop Loving You
TTITLE6=This Land Is Your Land
TTITLE7=So Afraid Of Losing You Again
TTITLE8=Letters Have No Arms
TTITLE9=Tiger By The Tail
TTITLE10=Geisha Girl
TTITLE11=Pick Me Up On Your Way Down
EXTD=
EXTT0=
EXTT1=
EXTT2=
EXTT3=
EXTT4=
EXTT5=
EXTT6=
EXTT7=
EXTT8=
EXTT9=
EXTT10=
EXTT11=
PLAYORDER=
